<svg width="182" height="76" viewBox="0 0 182 76" fill="none" xmlns="http://www.w3.org/2000/svg">
<path d="M1.14908 0.886673L56.2473 22.9167L72.2436 10.8133L72.3745 10.7133L72.5382 10.74L85.5782 12.85L104.775 10.9733L105.353 10.9167L105.153 11.4167L104.64 12.71L104.564 12.8967L104.349 12.9233L86.2691 15.2567L75.9891 26.7733L70.4873 36.27L70.4618 36.3133L70.4218 36.35L55.5382 49.7567L55.4982 49.7933L55.4473 49.8167L41.6836 56.3L42.9309 66.5833L48.7891 75.2233L49.1891 75.8167L48.4364 75.73L46.3818 75.4967L46.2509 75.48L46.16 75.3867L37.1782 66.21L37.1127 66.1433L37.0945 66.0533L34.1418 52.41L34.1309 52.3567L34.1418 52.2967L36.4218 39.1833L26.5927 30.8733L8.2109 16.5L8.14908 16.4533L8.11635 16.3867L0.672716 1.33001L0.101807 0.17334L1.14908 0.886673ZM56.16 23.61L1.72362 1.84334L8.74181 16.0433L27.0654 30.3833L27.0727 30.39L37.0473 38.82L37.1891 38.94L37.1564 39.1167L34.8582 52.3467L37.7782 65.8467L46.6 74.8567L47.7636 74.99L42.2654 66.88L42.2218 66.8167L42.2109 66.74L40.9273 56.1533L40.9018 55.9267L41.1273 55.82L55.0618 49.2567L69.8655 35.92L75.36 26.4367L75.3782 26.4067L75.4 26.38L85.7927 14.7367L85.88 14.6367L86.0218 14.6167L104.025 12.2933L104.265 11.69L85.5964 13.5133L85.5455 13.52L85.4945 13.5133L72.5709 11.4233L56.5345 23.56L56.3636 23.69L56.16 23.61Z" fill="white"/>
<path d="M86.2327 15.3666L66.3454 24.8933L65.4399 25.3267L65.8436 24.4667L72.1309 11.0566L72.7963 11.32L66.9127 23.87L85.8981 14.7766L86.2327 15.3666Z" fill="white"/>
<path d="M56.3419 23.0933L66.2219 24.2699L66.4546 24.2966L66.5237 24.4999L70.5019 36.1433L69.8073 36.3433L65.8982 24.8999L56.251 23.7533L56.3419 23.0933Z" fill="white"/>
<path d="M75.5855 27.04L66.3055 24.97L53.1892 38.62L41.5964 56.41L40.9746 56.0667L52.5855 38.25L52.6037 38.22L52.6219 38.2L65.9055 24.38L66.0473 24.2267L66.2619 24.2767L75.7564 26.3934L75.5855 27.04Z" fill="white"/>
<path d="M70.2038 36.5733L53.3274 38.7L55.6292 49.59L54.9128 49.7133L52.5383 38.4833L52.4656 38.1367L52.8474 38.09L70.1056 35.9133L70.2038 36.5733Z" fill="white"/>
<path d="M57.2218 23.0666L53.2509 38.4933L53.1891 38.7366L52.9127 38.75L36.8109 39.5166L36.7745 38.85L52.6073 38.1L56.5127 22.9166L57.2218 23.0666Z" fill="white"/>
<path d="M37.4874 65.79L41.9201 66.3967L34.1601 52.6267L34.0292 52.39L34.251 52.22L52.6655 38.1633L53.1273 38.6733L34.9383 52.56L42.891 66.6733L43.2146 67.25L42.5164 67.1533L37.3819 66.4467L37.4874 65.79Z" fill="white"/>
<path d="M46.0801 75.42L42.2328 66.9533L42.9019 66.6967L46.7528 75.1633L46.0801 75.42Z" fill="white"/>
<path d="M52.651 38.6666L38.4728 26.8466L38.4401 26.8166L38.4146 26.78L28.3419 12.5466L28.9492 12.1866L38.9965 26.38L53.1419 38.1733L52.651 38.6666Z" fill="white"/>
<path d="M48.4182 20.4534L38.9346 26.8667L38.8909 26.8934L38.8473 26.9101L26.9491 31.0634L26.6909 30.4434L38.5418 26.3034L47.9891 19.9167L48.4182 20.4534Z" fill="white"/>
<path d="M28.7237 12.69L8.51283 16.69L8.36011 16.04L28.5674 12.04L28.7237 12.69Z" fill="white"/>
<path d="M1.21093 1.04333L39.6036 26.89L39.1746 27.4267L0.778198 1.58L1.21093 1.04333Z" fill="white"/>
<path d="M44.3564 16.03L32.1345 2.66668L33.8182 12.2267L44.3564 16.03ZM31.8436 1.31668L45.8291 16.6067L46.7454 17.61L45.4182 17.13L33.3564 12.78L33.1636 12.71L33.1309 12.5233L31.2073 1.58335L31 0.390015L31.8436 1.31668Z" fill="white"/>
<path d="M86.2181 13.2433L86.3854 14.67L104.724 11.1L104.876 11.75L86.1418 15.3966L85.7454 15.4733L85.7054 15.1066L85.4945 13.3133L86.2181 13.2433Z" fill="white"/>
<path d="M66.9127 23.87L85.6763 14.88L85.5308 13.64L85.4872 13.6334L72.6836 11.56L66.9127 23.87ZM86.2327 15.3667L66.3454 24.8934L65.4399 25.3267L65.8436 24.4667L72.1308 11.0567L72.2436 10.8134L72.5272 10.86L85.5672 12.97L85.8181 12.9467L86.1781 12.91L86.2181 13.2434L86.4254 15.0367L86.4508 15.26L86.2327 15.3667Z" fill="white"/>
<path d="M66.7164 25.06L70.2436 35.3833L75.1345 26.9366L66.7164 25.06ZM69.8073 36.3433L65.8291 24.7L65.6364 24.23L66.2618 24.2766L75.7563 26.3933L76.2109 26.4933L75.9927 26.87L70.4727 36.3966L69.76 37.0633L69.8073 36.3433Z" fill="white"/>
<path d="M69.6801 35.9666L66.0255 25.2633L53.8183 37.9666L69.6801 35.9666ZM66.5237 24.5L70.5019 36.1433L70.411 36.48L70.2037 36.5733L52.9455 38.75L51.9783 38.87L52.6219 38.2L65.9019 24.38L66.3273 23.9366L66.5237 24.5Z" fill="white"/>
<path d="M53.5818 37.2L65.4509 24.8467L57.0182 23.8433L53.5818 37.2ZM66.4509 24.82L53.1709 38.64L52.2109 39.64L52.5418 38.3467L56.3891 23.4033L56.4655 23.11L56.7891 23.1467L66.2255 24.27L66.9018 24.35L66.4509 24.82Z" fill="white"/>
<path d="M66.0219 25.2633L53.8146 37.9666L69.6801 35.9666L66.0219 25.2633ZM52.6219 38.2L65.9019 24.38L66.3273 23.9366L66.5201 24.5L70.4982 36.1433L70.4473 36.44L70.2001 36.57L52.9419 38.7466L51.9746 38.8666L52.6219 38.2Z" fill="white"/>
<path d="M69.1201 36.71L53.3273 38.7L55.4982 48.98L69.1201 36.71ZM52.8473 38.09L70.1055 35.9134L70.9528 35.5734L70.4073 36.48L55.6764 49.8334L54.8655 50.2134L54.9128 49.7134L52.5382 38.48L52.4655 38.1367L52.8473 38.09Z" fill="white"/>
<path d="M52.72 39.3367L42.2436 55.4133L54.8618 49.47L52.72 39.3367ZM40.9054 55.93L52.5854 38.2467L53.0727 37.5L53.2545 38.3567L55.6291 49.59L55.68 49.8333L55.4363 49.9467L41.4473 56.5333L41.2473 57.6967L40.8945 56.05L40.9054 55.93Z" fill="white"/>
<path d="M40.9492 55.8667L51.4946 39.92L34.9383 52.56L41.9892 65.0734L40.9237 56.2734L40.8983 55.9534L40.9201 55.91L40.9492 55.8667ZM53.2074 38.59L41.6583 56.3134L42.9274 66.79L43.1419 68.5767L42.2437 66.9801L34.1601 52.63L34.0292 52.3934L34.2546 52.2234L52.6692 38.1667L54.3019 36.92L53.2074 38.59Z" fill="white"/>
<path d="M51.8291 38.8033L37.1055 39.5033L34.9928 51.6533L51.8291 38.8033ZM36.7746 38.85L52.8764 38.0867L53.9637 38.0333L53.1273 38.6733L34.7128 52.73L34.291 53.2966L34.0255 52.39L36.4328 39.1333L36.4801 38.8667L36.7746 38.85Z" fill="white"/>
<path d="M36.9273 38.8433L52.0073 38.1266L39.1564 27.4133L38.5564 27.0099L27.4946 30.8733L36.9273 38.8433ZM52.9128 38.7499L36.811 39.5133L36.6582 39.5199L36.5455 39.4266L26.5746 30.9999L26.1455 30.6366L26.691 30.4466L38.4873 26.3299L38.6691 26.2666L38.8291 26.3733L39.6037 26.8966L39.6219 26.9099L39.6364 26.9199L53.1455 38.1799L53.8619 38.6399L52.9128 38.7499Z" fill="white"/>
<path d="M8.64731 15.9834L19.1055 13.9134L1.89821 2.33004L8.64731 15.9834ZM20.0437 14.41L8.51276 16.6934L8.57822 16.9134L8.10549 16.5034L0.661851 1.44671L0.0909424 0.290039L1.21094 1.04337L20.1855 13.8167L20.8364 14.2567L20.0437 14.41Z" fill="white"/>
<path d="M48.2509 20.5667L39.2909 26.6233L39.6327 26.91L52.6836 37.79L56.2872 23.78L56.149 23.7267L48.2509 20.5667ZM38.5054 26.33L47.989 19.9167L48.1563 19.8033L48.349 19.88L56.2399 23.0367L56.6399 22.7333L57.4727 22.1033L57.2254 23.0633L57.1018 23.5467L53.2545 38.49L53.1127 39.04L52.6581 38.66L39.149 27.4L38.4763 26.84L38.149 26.5667L38.5054 26.33Z" fill="white"/>
<path d="M38.8109 26.12L47.48 20.26L29.6036 13.1133L38.8109 26.12ZM48.4181 20.4533L38.9345 26.8667L38.6254 27.0767L38.4145 26.78L28.3418 12.5467L27.6836 11.62L28.789 12.0633L48.3454 19.8833L48.9236 20.1133L48.4181 20.4533Z" fill="white"/>
<path d="M73.2291 54.48C73.2291 55.2267 73.1237 57.3433 70.211 57.3433C69.0037 57.3433 67.9273 57.03 67.9273 55.7567C67.9273 54.5034 68.9782 54.1433 70.131 53.9267C71.2873 53.7333 72.6001 53.71 73.2291 53.2034V54.48ZM68.3455 50.6767C68.4764 49.33 69.3964 48.8 70.8146 48.8C72.1273 48.8 73.2291 49.0167 73.2291 50.4833C73.2291 51.88 71.1019 51.8067 68.8182 52.12C66.5055 52.41 64.1964 53.0833 64.1964 55.9C64.1964 58.4533 66.2437 59.63 68.8182 59.63C70.4728 59.63 72.2037 59.22 73.3855 58.09C73.411 58.5 73.5164 58.91 73.651 59.2934H77.4328C77.091 58.79 76.96 57.6567 76.96 56.5267V50.05C76.96 47.0634 73.7055 46.51 71.0001 46.51C67.9528 46.51 64.8291 47.4734 64.6182 50.6734H68.3455V50.6767ZM79.051 59.2934H82.7782V53.6867C82.7782 51.4967 83.7237 49.69 86.4546 49.69C86.9019 49.69 87.451 49.7367 87.7928 49.81V46.6334C87.5564 46.56 87.2437 46.5134 86.9782 46.5134C85.1673 46.5134 83.3273 47.5967 82.6437 49.16H82.5891V46.85H79.0437V59.2934H79.051ZM88.811 59.2934H92.5382V55.01L93.9819 53.7333L97.7091 59.2934H102.226L96.5273 51.4234L101.647 46.85H97.2364L92.5382 51.3267V42.1067H88.811V59.2934ZM111.204 54.48C111.204 55.2267 111.098 57.3433 108.182 57.3433C106.975 57.3433 105.895 57.03 105.895 55.7567C105.895 54.5034 106.946 54.1433 108.102 53.9267C109.258 53.7333 110.571 53.71 111.2 53.2034V54.48H111.204ZM106.316 50.6767C106.447 49.33 107.367 48.8 108.786 48.8C110.098 48.8 111.2 49.0167 111.2 50.4833C111.2 51.88 109.073 51.8067 106.789 52.12C104.476 52.41 102.167 53.0833 102.167 55.9C102.167 58.4533 104.215 59.63 106.789 59.63C108.44 59.63 110.175 59.22 111.356 58.09C111.382 58.5 111.487 58.91 111.618 59.2934H115.4C115.058 58.79 114.927 57.6567 114.927 56.5267V50.05C114.927 47.0634 111.669 46.51 108.967 46.51C105.92 46.51 102.796 47.4734 102.585 50.6734H106.316V50.6767ZM126.713 59.2934H130.258V42.1067H126.527V48.3667H126.473C125.633 47.14 124.058 46.5134 122.455 46.5134C118.462 46.5134 116.444 49.62 116.444 52.9634C116.444 56.4033 118.44 59.63 122.535 59.63C124.269 59.63 125.793 59.0533 126.658 57.7033H126.709V59.2934H126.713ZM126.658 53.0334C126.658 55.08 125.92 57.0534 123.455 57.0534C121.142 57.0534 120.171 55.0067 120.171 53.0567C120.171 51.01 121.011 49.0834 123.455 49.0834C125.873 49.0867 126.658 51.0134 126.658 53.0334ZM145.138 53.9C145.4 50.0734 143.167 46.51 138.546 46.51C134.422 46.51 131.611 49.35 131.611 53.08C131.611 56.93 134.262 59.6267 138.546 59.6267C141.618 59.6267 143.851 58.3734 144.902 55.44H141.618C141.382 56.21 140.175 57.0534 138.676 57.0534C136.604 57.0534 135.447 56.0667 135.342 53.9H145.138ZM135.342 51.7333C135.393 50.77 136.076 49.0867 138.44 49.0867C140.251 49.0867 141.066 50 141.407 51.7333H135.342ZM146.651 59.2934H150.378V52.0734C150.378 49.6434 152.164 49.21 152.898 49.21C155.262 49.21 155.156 50.87 155.156 52.3167V59.2967H158.887V52.3667C158.887 50.8034 159.28 49.2134 161.382 49.2134C163.509 49.2134 163.665 50.5867 163.665 52.2467V59.2967H167.396V50.97C167.396 47.7467 165.324 46.5167 162.433 46.5167C160.542 46.5167 159.124 47.5034 158.338 48.5867C157.604 47.0934 156.08 46.5167 154.375 46.5167C152.615 46.5167 151.196 47.2634 150.226 48.54H150.175V46.8534H146.655V59.2934H146.651ZM181.909 46.85H178.051L175.084 55.37H175.033L171.96 46.85H167.967L172.746 58.5234C173.167 59.51 172.746 60.7367 171.458 60.8567C170.724 60.88 169.989 60.7833 169.28 60.7367V63.5533C170.044 63.6267 170.804 63.6733 171.564 63.6733C174.138 63.6733 175.422 62.8533 176.236 60.8567L181.909 46.85Z" fill="white"/>
<path d="M67.4291 64.8967H64.5309V64.4267V63.9567H71.4872V64.4267V64.8967H68.5891V71.8133H68.0109H67.4291V64.8967Z" fill="white"/>
<path d="M74.9745 71.9667C74.0909 71.9667 73.3963 71.7101 72.8945 71.1967C72.3891 70.6834 72.1345 69.9734 72.1345 69.0701C72.1345 68.1067 72.4036 67.3434 72.9382 66.7734C73.4727 66.2034 74.1891 65.92 75.0945 65.92C75.9127 65.92 76.5709 66.1967 77.0727 66.7534C77.5745 67.3067 77.8254 68.04 77.8254 68.9434L77.8145 69.2867H73.2582C73.3018 69.8567 73.4436 70.2934 73.6836 70.5901C73.9782 70.9534 74.4436 71.1367 75.0836 71.1367C75.4836 71.1367 75.8327 71.0334 76.1345 70.8267C76.4327 70.6201 76.6145 70.3567 76.6836 70.0367H77.7236C77.5672 70.6634 77.2581 71.1434 76.789 71.4734C76.309 71.8034 75.7091 71.9667 74.9745 71.9667ZM76.7272 68.5134C76.6945 67.9834 76.5527 67.5701 76.2945 67.2734C76.0109 66.9467 75.5963 66.7834 75.0472 66.7834C74.4945 66.7834 74.0545 66.9734 73.7236 67.35C73.4654 67.6467 73.3054 68.0334 73.2509 68.5167H76.7272V68.5134Z" fill="white"/>
<path d="M83.9964 69.7533C83.8873 70.4733 83.6109 71.0233 83.1636 71.4C82.7164 71.78 82.12 71.9667 81.3782 71.9667C80.5491 71.9667 79.8873 71.6933 79.3964 71.15C78.9018 70.6067 78.6545 69.87 78.6545 68.9467C78.6545 68.0233 78.9091 67.29 79.4218 66.7433C79.9345 66.1967 80.6218 65.9233 81.4836 65.9233C82.2364 65.9233 82.8327 66.11 83.28 66.4867C83.7273 66.8633 83.9673 67.38 83.9964 68.04H82.9855C82.9418 67.63 82.7891 67.3133 82.52 67.09C82.2509 66.8633 81.8945 66.7533 81.4473 66.7533C80.9164 66.7533 80.5018 66.9467 80.2 67.34C79.8982 67.73 79.7491 68.2667 79.7491 68.95C79.7491 69.6767 79.8909 70.2267 80.1709 70.59C80.4509 70.9567 80.8654 71.14 81.4182 71.14C81.8254 71.14 82.1673 71.02 82.4436 70.7767C82.7164 70.5367 82.8982 70.1967 82.9891 69.7533H83.9964Z" fill="white"/>
<path d="M85.0436 63.9534H85.5672H86.0909V66.8667L86.2727 66.6534C86.7272 66.1667 87.2981 65.9234 87.9818 65.9234C88.6727 65.9234 89.2036 66.0934 89.5745 66.4367C89.949 66.78 90.1345 67.2667 90.1345 67.8967V71.8134H89.6072H89.0836V68.1367C89.0836 67.6634 88.9854 67.32 88.7854 67.1134C88.5854 66.9034 88.2654 66.8 87.8181 66.8C87.2872 66.8 86.869 66.9767 86.5599 67.3267C86.2509 67.6767 86.0945 68.1534 86.0945 68.75V71.8134H85.5709H85.0472V63.9534H85.0436Z" fill="white"/>
<path d="M97.6364 63.9534H98.2982H98.96L102.04 71.81H101.418H100.796L99.9237 69.5334H96.5018L95.6 71.81H95H94.4L97.6364 63.9534ZM96.8655 68.5934H99.5637L98.24 65.11H98.2437L96.8655 68.5934Z" fill="white"/>
<path d="M107.895 69.7533C107.785 70.4733 107.505 71.0233 107.058 71.4C106.611 71.78 106.015 71.9667 105.276 71.9667C104.447 71.9667 103.785 71.6933 103.295 71.15C102.8 70.6067 102.556 69.87 102.556 68.9467C102.556 68.0233 102.811 67.29 103.32 66.7433C103.833 66.1967 104.52 65.9233 105.382 65.9233C106.131 65.9233 106.731 66.11 107.178 66.4867C107.625 66.8633 107.865 67.38 107.895 68.04H106.884C106.844 67.63 106.684 67.3133 106.418 67.09C106.153 66.8633 105.793 66.7533 105.345 66.7533C104.818 66.7533 104.404 66.9467 104.102 67.34C103.8 67.73 103.651 68.2667 103.651 68.95C103.651 69.6767 103.793 70.2267 104.069 70.59C104.349 70.9567 104.767 71.14 105.32 71.14C105.727 71.14 106.069 71.02 106.342 70.7767C106.615 70.5367 106.796 70.1967 106.887 69.7533H107.895Z" fill="white"/>
<path d="M110.585 71.9667C109.975 71.9667 109.491 71.8167 109.135 71.5167C108.778 71.2167 108.6 70.8134 108.6 70.3034C108.6 69.7901 108.767 69.3834 109.105 69.0801C109.44 68.7767 109.931 68.5867 110.578 68.5134L112.004 68.3467C112.12 68.3367 112.233 68.3167 112.338 68.2934C112.473 68.2601 112.578 68.1967 112.655 68.1001C112.727 68.0034 112.764 67.8834 112.764 67.7367V67.6901C112.764 67.3834 112.636 67.1434 112.385 66.97C112.135 66.7967 111.782 66.71 111.331 66.71C110.898 66.71 110.56 66.8034 110.32 66.9867C110.076 67.1701 109.931 67.4434 109.88 67.8067H108.913C108.964 67.18 109.204 66.71 109.636 66.3934C110.069 66.0767 110.687 65.92 111.491 65.92C112.247 65.92 112.825 66.07 113.222 66.37C113.618 66.67 113.818 67.11 113.818 67.6867V70.8301C113.818 70.9267 113.851 71.0034 113.913 71.0634C113.978 71.1234 114.062 71.1501 114.171 71.1501C114.204 71.1501 114.247 71.1467 114.309 71.1401C114.367 71.1334 114.433 71.1234 114.502 71.1067V71.8034C114.4 71.8367 114.295 71.8667 114.182 71.8901C114.069 71.9101 113.975 71.9201 113.895 71.9201C113.498 71.9201 113.211 71.8201 113.033 71.6201C112.916 71.4867 112.833 71.3001 112.782 71.0567C112.705 71.1467 112.615 71.2301 112.513 71.3134C111.985 71.7534 111.345 71.9667 110.585 71.9667ZM112.76 69.5467V68.9267C112.567 69.0134 112.353 69.0701 112.113 69.1034L111.153 69.2334C110.647 69.2967 110.276 69.4034 110.044 69.5567C109.811 69.7067 109.695 69.9134 109.695 70.1734C109.695 70.4934 109.789 70.7401 109.982 70.9134C110.171 71.0867 110.444 71.1734 110.793 71.1734C111.345 71.1734 111.811 71.0367 112.193 70.7634C112.451 70.5701 112.625 70.3534 112.713 70.1101C112.731 70.0634 112.738 69.9934 112.749 69.8934C112.756 69.7834 112.76 69.6701 112.76 69.5467Z" fill="white"/>
<path d="M117.964 71.9667C117.127 71.9667 116.462 71.68 115.971 71.11C115.476 70.54 115.229 69.7667 115.229 68.7933C115.229 67.9333 115.469 67.2433 115.949 66.7133C116.425 66.1867 117.051 65.9233 117.822 65.9233C118.585 65.9233 119.193 66.22 119.64 66.8167L119.72 66.9233V63.9567H120.244H120.767V71.8133H120.284H119.793V71.0333L119.658 71.21C119.229 71.7133 118.662 71.9667 117.964 71.9667ZM118.022 66.7867C117.433 66.7867 117.004 66.96 116.731 67.3033C116.458 67.6467 116.324 68.1933 116.324 68.9433C116.324 69.65 116.473 70.1933 116.764 70.5733C117.058 70.9533 117.476 71.1467 118.022 71.1467C118.531 71.1467 118.942 70.9733 119.251 70.62C119.564 70.27 119.716 69.8033 119.716 69.2267C119.716 68.4467 119.571 67.8467 119.276 67.4233C118.985 67 118.567 66.7867 118.022 66.7867Z" fill="white"/>
<path d="M124.767 71.9667C123.887 71.9667 123.193 71.7101 122.687 71.1967C122.182 70.6834 121.931 69.9734 121.931 69.0701C121.931 68.1067 122.196 67.3434 122.735 66.7734C123.269 66.2034 123.985 65.92 124.887 65.92C125.705 65.92 126.364 66.1967 126.865 66.7534C127.367 67.3067 127.618 68.04 127.618 68.9434L127.604 69.2867H123.047C123.091 69.8567 123.233 70.2934 123.473 70.5901C123.767 70.9534 124.236 71.1367 124.873 71.1367C125.273 71.1367 125.622 71.0334 125.924 70.8267C126.222 70.6201 126.404 70.3567 126.473 70.0367H127.509C127.353 70.6634 127.044 71.1434 126.575 71.4734C126.105 71.8034 125.502 71.9667 124.767 71.9667ZM126.52 68.5134C126.487 67.9834 126.345 67.5701 126.087 67.2734C125.804 66.9467 125.389 66.7834 124.836 66.7834C124.284 66.7834 123.844 66.9734 123.513 67.35C123.255 67.6467 123.095 68.0334 123.04 68.5167H126.52V68.5134Z" fill="white"/>
<path d="M128.869 66.0933H129.367H129.869V66.9433L130.084 66.6867C130.553 66.1767 131.116 65.9233 131.771 65.9233C132.331 65.9233 132.774 66.0733 133.105 66.3767C133.254 66.5133 133.367 66.6667 133.451 66.8433L133.618 66.6467C134.069 66.1667 134.607 65.9267 135.236 65.9267C135.891 65.9267 136.393 66.09 136.749 66.4167C137.105 66.7433 137.284 67.2067 137.284 67.8033V71.8167H136.76H136.236V68.1267C136.236 67.6933 136.138 67.3633 135.945 67.14C135.753 66.9167 135.465 66.8033 135.094 66.8033C134.64 66.8033 134.276 66.9633 134.007 67.29C133.738 67.6133 133.604 68.0533 133.604 68.6033V71.8167H133.08H132.556V67.9C132.556 67.5433 132.469 67.27 132.291 67.0833C132.113 66.8967 131.854 66.8033 131.52 66.8033C131.054 66.8033 130.673 66.9867 130.374 67.3467C130.076 67.71 129.927 68.18 129.927 68.7533V71.8167H129.404H128.88V66.0933H128.869Z" fill="white"/>
<path d="M141.505 72C141.138 72.8799 140.815 73.4566 140.527 73.7266C140.244 73.9966 139.815 74.13 139.244 74.13C139.058 74.1333 138.887 74.1133 138.738 74.0733V73.1799C138.898 73.2333 139.098 73.2633 139.338 73.2633C139.575 73.2633 139.775 73.1733 139.935 72.9966C140.095 72.82 140.276 72.4866 140.476 71.9966L140.491 71.9066L138.175 66.09H138.771H139.375L141.04 70.82L142.731 66.09H143.302H143.88L141.505 72Z" fill="white"/>
</svg>
